<svg width="173" height="16" viewBox="0 0 173 16" fill="none" xmlns="http://www.w3.org/2000/svg">
<path d="M10.6354 0C12.316 0.000443338 13.8688 0.885346 14.7075 2.32043L16.6892 5.69911C17.5383 7.12932 17.5486 8.89558 16.7162 10.3333L14.7341 13.7124C13.9795 15.0002 12.6496 15.8432 11.1689 15.9998L6.19673 16C4.7144 15.8439 3.38282 14.9998 2.62824 13.7102L2.57065 13.6087C2.06759 13.7231 1.42459 13.9049 0.597553 14.1664C0.568755 14.174 0.538158 14.1691 0.51341 14.1527C0.466163 14.1212 0.453564 14.0582 0.485062 14.0117C0.950775 13.2851 1.2572 12.4702 1.38364 11.6203L0.6304 10.3315C-0.210133 8.89868 -0.210133 7.13242 0.6304 5.69955L2.6035 2.32043C3.44223 0.885346 4.99461 0.000443338 6.67567 0H10.6354Z" fill="url(#paint0_linear_47_12293)"/>
<path d="M43.3828 12.2679C43.8468 11.6081 44.7484 11.4255 45.434 11.8524C46.3594 12.4518 47.4405 12.7697 48.5444 12.7662C50.4597 12.7662 51.2153 11.8349 51.2153 10.9618C51.2153 9.77851 49.8147 9.41739 48.2141 9.00466L48.1881 8.99797C46.0181 8.46027 43.4655 7.8258 43.4655 5.03135C43.4655 2.84509 45.3984 1.16544 48.2981 1.16544C50.1396 1.09363 51.9335 1.75612 53.282 3.00666L52.869 3.53604C52.3936 4.14423 51.5408 4.31019 50.8705 3.9253C50.0235 3.45942 49.0704 3.21859 48.1028 3.22559C46.7275 3.22559 45.8492 3.88195 45.8492 4.87416C45.8492 5.86679 47.2087 6.23854 48.7796 6.62211C50.9756 7.17732 53.581 7.8512 53.581 10.7293C53.581 12.9155 52.0259 14.8141 48.441 14.8141C45.99 14.8141 44.2149 13.9612 43.0419 12.7102L43.3828 12.2679Z" fill="#0A2B58"/>
<path d="M32.721 1.36511H31.9038V1.36249C31.0563 1.36511 30.3706 2.04993 30.3706 2.89327V9.37761C30.3706 12.6445 32.2816 14.8316 36.126 14.8316C39.9703 14.8316 41.8633 12.6489 41.8633 9.35571V1.36511H41.0509C40.2017 1.36511 39.5134 2.05038 39.5134 2.89589V9.29879C39.5134 11.3979 38.358 12.7667 36.126 12.7667C33.8939 12.7667 32.721 11.3979 32.721 9.29879V1.36511Z" fill="#0A2B58"/>
<path d="M23.6644 12.7662C22.7857 12.743 21.9593 12.3468 21.3933 11.6773L20.332 13.4445C21.249 14.3885 22.5289 14.8951 23.8465 14.8356C26.4168 14.8356 28.3273 13.4274 28.3273 10.414V1.36511H27.5348C26.6855 1.36511 25.9972 2.05037 25.9972 2.89589V10.3694C26.0064 10.4753 26.0082 10.5817 26.002 10.6881C25.933 11.9045 24.8862 12.835 23.6644 12.7662Z" fill="#0A2B58"/>
<path d="M54.572 3.41608H58.1701L58.1688 14.5908H60.4971V3.41608H62.6636C63.4592 3.41125 64.1 2.76496 64.0952 1.97287V1.36511H56.1096C55.2607 1.36511 54.572 2.05037 54.572 2.89589V3.41608Z" fill="#0A2B58"/>
<path d="M74.532 1.38574H66.9673C66.118 1.38574 65.4297 2.071 65.4297 2.91652V14.5983H67.7585V8.9122H72.0769C72.8726 8.90957 73.5156 8.26547 73.5129 7.47338V6.87H67.758V3.4367H73.1004C73.896 3.43188 74.5368 2.7856 74.532 1.9935V1.38574Z" fill="url(#paint1_linear_47_12293)"/>
<path d="M75.3002 14.6141L79.1754 4.03C79.2022 3.96476 79.2541 3.91309 79.3196 3.88638C79.4542 3.83165 79.6077 3.89601 79.6627 4.03L83.5378 14.6119H86.0949L81.4118 2.73304C81.0903 1.9208 80.3031 1.38661 79.4261 1.38617C78.5482 1.38573 77.7588 1.91993 77.436 2.73304L72.7485 14.6141H75.3002Z" fill="url(#paint2_linear_47_12293)"/>
<path d="M99.7377 15.2479C95.9247 15.2479 92.8867 12.3649 92.8867 8.61392C92.8867 4.86292 95.9247 1.99542 99.7532 1.99542C101.551 1.99542 103.008 2.59992 103.892 3.18892V5.38992C102.884 4.42892 101.272 3.76242 99.7377 3.76242C96.9167 3.76242 94.8862 5.88592 94.8862 8.61392C94.8862 11.3419 96.9167 13.4654 99.7377 13.4654C101.303 13.4654 102.884 12.7989 103.892 11.8534V14.0544C102.977 14.6434 101.551 15.2479 99.7377 15.2479Z" fill="#161616"/>
<path d="M109.434 15.2014C107.063 15.2014 105.218 13.3259 105.218 10.8304C105.218 8.33492 107.063 6.45942 109.434 6.45942C110.442 6.45942 111.527 7.00192 112.1 7.74592V6.66092H113.867V14.9999H112.1V13.9149C111.527 14.6589 110.457 15.2014 109.434 15.2014ZM109.589 13.4964C110.984 13.4964 112.007 12.2564 112.007 10.8304C112.007 9.40442 110.984 8.16442 109.589 8.16442C108.179 8.16442 107.156 9.38892 107.156 10.8304C107.156 12.2719 108.179 13.4964 109.589 13.4964Z" fill="#161616"/>
<path d="M118.904 15.2169C117.54 15.2169 116.408 14.8449 115.757 14.5659V12.6129C116.734 13.1864 117.989 13.5584 118.888 13.5584C119.772 13.5584 120.175 13.2484 120.175 12.7059C120.175 12.1789 119.741 11.8999 118.671 11.6364C116.594 11.1249 115.726 10.2259 115.726 8.87742C115.726 7.38942 116.951 6.49042 118.904 6.49042C119.989 6.49042 120.965 6.72292 121.647 6.93992V8.89292C120.764 8.44342 119.725 8.14892 118.904 8.14892C118.051 8.14892 117.648 8.41242 117.648 8.87742C117.648 9.34242 118.005 9.62142 119.152 9.91592C121.151 10.4274 122.097 11.2644 122.097 12.7059C122.097 14.1939 120.872 15.2169 118.904 15.2169Z" fill="#161616"/>
<path d="M125.801 14.9999H123.925V1.66992H125.801V5.18842C125.801 6.04092 125.77 6.86242 125.739 7.69942C126.064 7.23442 126.824 6.45942 128.25 6.45942C129.676 6.45942 131.272 7.38942 131.272 9.90042V14.9999H129.412V9.91592C129.412 8.78442 128.684 8.19542 127.862 8.19542C127.041 8.19542 125.801 8.98592 125.801 10.8614V14.9999Z" fill="#161616"/>
<path d="M138.958 14.9999H137.036V2.22792H144.801V4.01042H138.958V8.16442H144.088V9.93142H138.958V14.9999Z" fill="#161616"/>
<path d="M148.309 14.9999H146.434V1.66992H148.309V14.9999Z" fill="#161616"/>
<path d="M154.456 15.2014C152.069 15.2014 150.023 13.3259 150.023 10.8304C150.023 8.33492 152.069 6.45942 154.456 6.45942C156.827 6.45942 158.889 8.33492 158.889 10.8304C158.889 13.3259 156.827 15.2014 154.456 15.2014ZM154.456 13.4964C155.851 13.4964 156.951 12.3339 156.951 10.8304C156.951 9.32692 155.851 8.16442 154.456 8.16442C153.061 8.16442 151.96 9.32692 151.96 10.8304C151.96 12.3339 153.061 13.4964 154.456 13.4964Z" fill="#161616"/>
<path d="M163.061 15.3099L159.031 6.66092H161.17L163.185 11.3419L165.479 6.31992L167.789 11.3419L169.788 6.66092H171.912L167.758 15.3099L165.448 10.1329L163.061 15.3099Z" fill="#161616"/>
<defs>
<linearGradient id="paint0_linear_47_12293" x1="5.70937" y1="3.33097e-07" x2="13.295" y2="13.7683" gradientUnits="userSpaceOnUse">
<stop stop-color="#96C568"/>
<stop offset="1" stop-color="#00ABEE"/>
</linearGradient>
<linearGradient id="paint1_linear_47_12293" x1="65.4226" y1="1.4177" x2="86.0405" y2="14.6365" gradientUnits="userSpaceOnUse">
<stop stop-color="#96C568"/>
<stop offset="1" stop-color="#0FAFE7"/>
<stop offset="1" stop-color="#00ABEE"/>
</linearGradient>
<linearGradient id="paint2_linear_47_12293" x1="65.4226" y1="1.4177" x2="86.0405" y2="14.6365" gradientUnits="userSpaceOnUse">
<stop stop-color="#96C568"/>
<stop offset="1" stop-color="#0FAFE7"/>
<stop offset="1" stop-color="#00ABEE"/>
</linearGradient>
</defs>
</svg>
